<svg id="Layer_1" data-name="Layer 1" xmlns="http://www.w3.org/2000/svg" viewBox="0 0 604.31 112.27"><defs><style>.cls-1{fill:#ed2024;}</style></defs><title>home</title><g id="d3yxQU.tif"><path class="cls-1" d="M396.75,22.15l.81.22c0,1,0,2.08,0,3.12-.38,12.06-.86,24.12-1.11,36.18-.17,7.77-.61,8.55-8.12,10.88-.38.12-.64.66-1,1a7.33,7.33,0,0,0,1.14.79,2.45,2.45,0,0,0,.91,0c7.48.07,15,.16,22.44.19.52,0,1-.48,1.57-.74-.48-.44-.91-1.14-1.46-1.27-5.43-1.24-6.62-2.63-6.59-8.14.08-13.14.2-26.29.28-39.43,0-6.16,1.41-8,7.46-9.3,1.71-.37,1.69-1.07,1.25-2.16-5.29,0-10.41-.08-15.51.1-.82,0-1.94,1.14-2.34,2-6.26,13.67-12.43,27.38-18.6,41.08-.54,1.2-1,2.43-1.77,4.19L375,58.06Q366,37,356.95,16c-.37-.86-1.29-2.07-2-2.11-5.56-.28-11.14-.32-16.71-.36a1.51,1.51,0,0,0-1,1.06,1.59,1.59,0,0,0,.86,1.25,13.92,13.92,0,0,0,2.5.25c5.45.67,7.71,3.56,7.3,9-.34,4.42-.49,8.85-.68,13.27-.35,8.32-.6,16.64-1,25-.3,6.12-1.94,7.95-7.72,9.31-.5.12-.87.76-1.3,1.17.53.27,1.05.76,1.58.76,4,0,8.09-.17,12.14-.16,2.1,0,4.2.24,6.29.37.11-1.86.11-1.86-1.75-2.2-4.5-.84-6.05-2.6-6-7.18.22-10.84.53-21.69.78-32.53.06-2.75,0-5.5,0-8.25l.85-.11c1.13,2.14,2.41,4.22,3.36,6.44,5.86,13.67,11.64,27.38,17.49,41.06a8.51,8.51,0,0,0,1.64,1.92,10.51,10.51,0,0,0,1.39-1.91c6.24-14.59,12.43-29.2,18.69-43.78C394.53,26.1,395.71,24.16,396.75,22.15Zm-79.88,5.61c.37-.34.68-.82,1.12-1,2.21-.9,4.49.73,4.78,3.47a6,6,0,0,1-3.55,6.4c-3.69,1.79-7.54,3.28-11.38,4.74C302.79,43.29,297.63,45,292.6,47A11.23,11.23,0,0,0,288.4,50a7.25,7.25,0,0,0-1,8.16,4.58,4.58,0,0,0,5,2.85A6.1,6.1,0,0,0,296,58.87c.45-.62,0-2.46-.7-3.25-1.12-1.33-2.68-1.07-4.15-.13-.46.3-1.49.42-1.76.14a2.3,2.3,0,0,1-.31-1.85,6.3,6.3,0,0,1,4.48-4.5c5.57-2,11.72.2,14.11,4.9a12.08,12.08,0,0,1-3.89,15.1c-7.15,5.1-18.86,4.34-25.12-1.62-6.4-6.11-7.79-17.69-3-25.15a11.53,11.53,0,0,1,14.89-4.43,7,7,0,0,0,3.73.48,2.78,2.78,0,0,0,1.75-1.91,2.49,2.49,0,0,0-1.29-2c-1.33-.47-2.87-.31-4.24-.72s-3-.85-3.67-1.85c-2.82-4.15-2.2-10.55,2.8-13.11,7-3.6,14.15,0,14.08,6.54a2.93,2.93,0,0,0,.41,1l.61.15a11.63,11.63,0,0,0,1-2.87c.64-7.53-3.09-11.71-11-12.44-8.5-.78-15.73,6.63-14.19,15,.53,2.9,2.34,5.56,3.48,8.13a77.26,77.26,0,0,0-9,2.85c-12.63,5.6-15.36,21.06-5.55,30.77,5.29,5.23,11.94,7.28,19.14,7.6s14.22-.94,19.93-5.89c4.15-3.59,5.85-8.22,4.45-13.6-1.32-5.09-5-7.85-10-9-1.21-.28-2.47-.35-3.7-.52l-.06-.59c3.32-.66,6.69-1.15,9.95-2a73.11,73.11,0,0,0,11.9-3.87c4-1.85,5.45-6.09,4.36-10.34A6.26,6.26,0,0,0,320.71,25a6.87,6.87,0,0,0-6.82,1.6c-1.66,1.62-1.79,4.73-.23,6a3,3,0,0,0,4,0C319,31.52,318.73,29.91,316.87,27.76ZM166.68,38.51c.33.5.48,1,.77,1.14,2.79.88,4,3.19,5.09,5.57Q178.87,59.44,185,73.73c.49,1.13.87,2.36,2.28,2a3.84,3.84,0,0,0,2.1-1.89c4.44-9.3,8.73-18.67,13.23-27.94a20.26,20.26,0,0,1,3.86-5c1.29-1.33,2.87-1.06,3.94.44a38.7,38.7,0,0,1,3.4,5.42c3.86,7.88,7.49,15.88,11.48,23.69a8.22,8.22,0,0,1,.26,7.72c-2.8,6.49-5.43,13-12,16.76a5,5,0,0,0-2.16,2.82,4.7,4.7,0,0,0,.61,3.54,3.43,3.43,0,0,0,3,.65,7.06,7.06,0,0,0,3.55-2.28,41.3,41.3,0,0,0,4.23-7.28c6.9-15.47,13.68-31,20.54-46.48a10.94,10.94,0,0,1,5.47-5.92c.47-.21.75-.85,1.45-1.69-4.8,0-9,0-13.18,0-.41,0-.82.45-1.23.7.34.33.65.91,1,1,2.74.32,3.07,2.26,2.41,4.19-2.51,7.33-5.24,14.6-7.92,22-.66-.35-.87-.38-.92-.49-3.25-7.15-6.55-14.27-9.67-21.48-.86-2,.07-3.24,2.23-4,.73-.25,1.42-.62,2.13-.94l-.21-.77-30.12,0c.67.77.94,1.36,1.39,1.55,2.91,1.23,3.4,1.81,2.4,4.78-1.71,5.05-3.66,10-5.6,15-1,2.46-2.13,4.84-3.21,7.26l-.65.05C186.08,59.29,183,51.51,180,43.7c-.7-1.81.44-2.85,2.07-3.46.77-.29,1.5-.66,2.25-1l-.16-.75ZM480.81,73.12l-.16.78a9.79,9.79,0,0,0,2.32.55c3.43,0,6.86-.19,10.29-.26,1.76,0,3.52,0,5.27,0,.35,0,.69-.42,1-.64a4.34,4.34,0,0,0-1-.93,4.43,4.43,0,0,0-1.36-.14c-2.83-.27-3.39-.86-3.4-3.74,0-4.51,0-9,0-13.52,0-3.61.29-7.18,2.2-10.4a10.25,10.25,0,0,1,11.26-4.64c3.85,1.06,5.57,3.75,5.51,8.88-.07,6-.27,12.06-.38,18.09-.06,3.58-.95,4.61-4.56,5.37a6,6,0,0,0-1.62,1l.31.82h18.89l.33-.48a7.59,7.59,0,0,0-1.78-1c-3.46-.85-4.46-1.94-4.65-5.5-.08-1.44,0-2.9.09-4.35.21-5.19.59-10.37.63-15.56,0-5.93-3.2-9.85-9-11a18.34,18.34,0,0,0-6.13,0,15.13,15.13,0,0,0-11.09,7.39,12,12,0,0,1-.18-1.39q.52-15.1,1.06-30.21c0-1.12-.17-2.09-1.57-1.95-4.1.41-8.19.86-12.27,1.38-.37,0-1,.72-.93,1a1.77,1.77,0,0,0,1,1.22,12.38,12.38,0,0,0,2.5.24c2.16.2,3.34,1.33,3.37,3.55,0,1,0,2,0,3,0,8.18,0,16.35.07,24.53,0,7.94.13,15.89.15,23.83a3.21,3.21,0,0,1-3.13,3.55C482.83,72.69,481.82,72.93,480.81,73.12Zm-332.62.33.1.86a19.74,19.74,0,0,0,2.11.23c5,0,9.92,0,14.88,0a6.42,6.42,0,0,0,2-.78,8,8,0,0,0-1.86-.94c-3.72-.78-4.14-1.22-4.11-5q.19-27.48.45-55c0-2-.5-2.53-2.5-2.2-3.3.54-6.65.89-10,1.13-1.64.12-2,.71-1.46,2.28l2.19.22c3.37.3,4.1,1,4.12,4.42q.15,25,.24,49.92c0,2.78-.75,3.57-3.54,4.12C150,72.91,149.08,73.21,148.19,73.46ZM456.62,39.69c.25.17.44.41.62.4,3.12-.15,3.25,1.81,3.19,4.19q-.28,11.21-.32,22.43c0,4.29,1.91,7.19,5.19,8.34,4.32,1.52,10.4.48,12.68-2.23a5.39,5.39,0,0,0,1.16-2.19c.12-.56-.28-1.24-.58-2.34a7.1,7.1,0,0,1-8.12,3.32,3.53,3.53,0,0,1-3.1-3.69c0-8.47.08-16.94.08-25.41,0-1.48.7-1.78,2-1.75,2.29.06,4.59.1,6.87,0,.69,0,1.8-.66,1.91-1.19.31-1.4-.85-1.46-1.92-1.46-2.79,0-5.58,0-8.51,0,0-3,0-6.07,0-9.11a1.87,1.87,0,0,0-.76-1.37c-.28-.16-1,.17-1.34.47a3.06,3.06,0,0,0-.56,1.23c-1.52,4.09-3.39,7.88-7.86,9.56C457,38.94,456.87,39.32,456.62,39.69Zm121.29,2.48.4.6c0-1.29,0-2.58,0-3.87,0-3-.14-3.08-2.93-2.38s-5.37,1.16-8,1.85a6.42,6.42,0,0,0-1.78,1.22c.68.37,1.35,1,2.06,1.05,3.26.19,3.86.69,3.83,4-.06,8-.19,16-.24,24.07a3.39,3.39,0,0,1-3.15,3.78c-1,.17-1.94.43-2.92.64l.08.74h19.88a1.9,1.9,0,0,0-1.39-1.13c-5-.74-5.42-1.16-5.42-6.24s-.22-10.41.14-15.59a17.66,17.66,0,0,1,2.33-7.71c2.11-3.47,5.9-3.3,8.53-.3A3.47,3.47,0,0,0,592,43.95,3.65,3.65,0,0,0,594.3,42a4,4,0,0,0-2.55-5.51A9.06,9.06,0,0,0,583.28,38C581.42,39.27,579.7,40.76,577.91,42.17ZM144.74,74.36l.24-.81a19.63,19.63,0,0,0-2.77-.81c-2.23-.32-3.41-1.38-3.33-3.78.11-3.28,0-6.56.09-9.84q.18-10.18.43-20.36c0-1.49-.13-2.66-2.12-2.19-3.18.75-6.38,1.42-9.55,2.21-.45.11-.77.74-1.15,1.13a5.5,5.5,0,0,0,1.2,1.05,2.58,2.58,0,0,0,1.36,0c2.32-.32,3.19.86,3.19,3,0,8.17.09,16.34,0,24.5,0,3.1-.85,3.67-4,4.29a15.65,15.65,0,0,0-2.32.85l.25.73Zm-8.56-52.64a4.38,4.38,0,0,0,4.5-4.43,4.48,4.48,0,1,0-8.95-.09A4.46,4.46,0,0,0,136.19,21.72Z"/><path class="cls-1" d="M396.75,22.15c-1,2-2.23,3.94-3.11,6-6.26,14.58-12.45,29.2-18.69,43.78a10.51,10.51,0,0,1-1.39,1.91,8.51,8.51,0,0,1-1.64-1.92c-5.86-13.68-11.63-27.39-17.49-41.06-1-2.22-2.23-4.3-3.36-6.44l-.85.11c0,2.75.06,5.5,0,8.25-.24,10.84-.56,21.69-.78,32.53-.09,4.57,1.46,6.34,6,7.18,1.86.35,1.86.35,1.75,2.2-2.09-.13-4.19-.36-6.29-.37-4,0-8.09.16-12.14.16-.53,0-1.05-.49-1.58-.76.43-.4.8-1,1.3-1.17,5.78-1.36,7.42-3.19,7.72-9.31.41-8.32.66-16.64,1-25,.19-4.43.34-8.86.68-13.27.42-5.43-1.84-8.32-7.3-9a13.92,13.92,0,0,1-2.5-.25,1.59,1.59,0,0,1-.86-1.25,1.51,1.51,0,0,1,1-1.06c5.57,0,11.15.08,16.71.36.72,0,1.63,1.25,2,2.11Q366,37,375,58.06l1.2,2.82c.74-1.76,1.22-3,1.77-4.19,6.18-13.7,12.35-27.41,18.6-41.08.4-.87,1.52-2,2.34-2,5.1-.19,10.21-.1,15.51-.1.44,1.09.46,1.8-1.25,2.16-6,1.29-7.42,3.14-7.46,9.3-.08,13.14-.21,26.29-.28,39.43,0,5.51,1.16,6.89,6.59,8.14.56.13,1,.83,1.46,1.27-.52.26-1.05.75-1.57.74-7.48,0-15-.11-22.44-.19a2.45,2.45,0,0,1-.91,0,7.33,7.33,0,0,1-1.14-.79c.31-.34.57-.88,1-1,7.51-2.33,8-3.11,8.12-10.88.26-12.06.74-24.12,1.11-36.18,0-1,0-2.08,0-3.12Z"/><path class="cls-1" d="M46.19,76.76c-13-.23-22.28-4-29.31-12.45A30.82,30.82,0,0,1,20.54,21c14-12.15,36.1-11.33,48.67,1.81,16.18,16.91,9.53,43.94-12.82,51.69A75.49,75.49,0,0,1,46.19,76.76Zm-25.26-31c.13,1.51.24,3.72.52,5.92.72,5.76,2.39,11.17,6.09,15.79,7.81,9.75,26.71,10.81,34.82-3.63C68.89,52.24,68.91,40,63.5,28,59.76,19.72,53,15,43.81,15.11s-15.44,5-19.34,13.09C21.89,33.53,21.09,39.24,20.93,45.79Z"/><path class="cls-1" d="M316.87,27.76c1.85,2.15,2.13,3.76.78,4.84a3,3,0,0,1-4,0c-1.56-1.26-1.43-4.36.23-6a6.87,6.87,0,0,1,6.82-1.6,6.26,6.26,0,0,1,4.79,4.77c1.09,4.25-.39,8.49-4.36,10.34A73.11,73.11,0,0,1,309.25,44c-3.26.88-6.63,1.37-9.95,2l.06.59c1.23.17,2.49.24,3.7.52,5,1.14,8.68,3.9,10,9,1.4,5.39-.31,10-4.45,13.6-5.72,5-12.67,6.22-19.93,5.89s-13.85-2.37-19.14-7.6c-9.82-9.7-7.08-25.17,5.55-30.77a77.26,77.26,0,0,1,9-2.85c-1.14-2.57-2.94-5.23-3.48-8.13-1.54-8.35,5.69-15.76,14.19-15,7.87.73,11.6,4.91,11,12.44a11.63,11.63,0,0,1-1,2.87l-.61-.15a2.93,2.93,0,0,1-.41-1c.07-6.57-7.06-10.14-14.08-6.54-5,2.56-5.62,9-2.8,13.11.68,1,2.36,1.45,3.67,1.85s2.91.25,4.24.72a2.49,2.49,0,0,1,1.29,2,2.78,2.78,0,0,1-1.75,1.91,7,7,0,0,1-3.73-.48,11.53,11.53,0,0,0-14.89,4.43c-4.78,7.46-3.39,19,3,25.15,6.25,6,18,6.72,25.12,1.62a12.08,12.08,0,0,0,3.89-15.1c-2.39-4.7-8.54-6.86-14.11-4.9a6.3,6.3,0,0,0-4.48,4.5,2.3,2.3,0,0,0,.31,1.85c.27.28,1.29.15,1.76-.14,1.47-.94,3-1.2,4.15.13.66.79,1.15,2.63.7,3.25A6.1,6.1,0,0,1,292.42,61a4.58,4.58,0,0,1-5-2.85,7.25,7.25,0,0,1,1-8.16A11.23,11.23,0,0,1,292.6,47c5-2,10.18-3.66,15.24-5.58,3.84-1.46,7.69-2.95,11.38-4.74a6,6,0,0,0,3.55-6.4c-.29-2.74-2.57-4.37-4.78-3.47C317.56,26.94,317.24,27.42,316.87,27.76Z"/><path class="cls-1" d="M89.48,80.55C83,86.27,86.18,94.9,93.42,97a21.27,21.27,0,0,0,14.36-.38,10.65,10.65,0,0,0,6.36-13.31c-.91-2.88-2.84-4.85-5.84-5.11-3.33-.29-6.7,0-10-.14a77.28,77.28,0,0,1-9.32-.69c-2.51-.4-4.57-1.77-5.1-4.58a6.71,6.71,0,0,1,3-7.17,38.07,38.07,0,0,1,5.12-2.52C86.7,60.71,84.16,56.44,84,50.84a13.77,13.77,0,0,1,3.65-10.07c4.5-5,15.93-7.13,22.93,1.21.48-.59.92-1.16,1.38-1.72,2.53-3,5.76-4.41,9.56-3.26A6.87,6.87,0,0,1,125,40.13a3.1,3.1,0,0,1-1.43,4.47,3.22,3.22,0,0,1-4.41-1.7,3,3,0,0,0-3.8-1.66,3.34,3.34,0,0,0-2.74,3.47c0,1,.33,2,.34,2.95a47.16,47.16,0,0,1-.18,7.27c-.69,4.56-3.64,7.35-8,8.45-2.49.63-5.13.62-7.68,1A56.11,56.11,0,0,0,90,65.79a3.09,3.09,0,0,0-2.29,3.54c.28,1.84,1.89,2.06,3.37,2.06,4,0,7.94-.12,11.91-.13a42.86,42.86,0,0,1,6.86.2c8.91,1.42,13.29,9.54,9.83,18.11-2.75,6.81-8.25,10-15.18,11a34.69,34.69,0,0,1-15.63-1.35C83.8,97.47,80,94.42,79.42,88.63c-.28-2.94.42-5.67,3-7.49C84.5,79.67,86.79,79.67,89.48,80.55Zm16.89-30.15.57-.2c-.88-2.63-1.38-5.47-2.71-7.84-2.62-4.7-7.85-4.77-11-.42s-3,13.64.48,17.93c3,3.7,7.45,3.56,10.19-.36A15,15,0,0,0,106.37,50.41Z"/><path class="cls-1" d="M166.68,38.51h17.46l.16.75c-.75.33-1.49.7-2.25,1-1.63.61-2.77,1.66-2.07,3.46,3,7.81,6.11,15.59,9.18,23.38l.65-.05c1.08-2.42,2.25-4.8,3.21-7.26,1.94-5,3.89-9.94,5.6-15,1-3,.51-3.55-2.4-4.78-.45-.19-.72-.78-1.39-1.55l30.12,0,.21.77c-.71.32-1.4.69-2.13.94-2.16.73-3.1,2-2.23,4,3.12,7.21,6.42,14.33,9.67,21.48,0,.11.26.15.92.49,2.68-7.36,5.4-14.62,7.92-22,.66-1.93.34-3.87-2.41-4.19-.37,0-.69-.62-1-1,.41-.24.82-.69,1.23-.7,4.18-.05,8.37,0,13.18,0-.7.84-1,1.48-1.45,1.69a10.94,10.94,0,0,0-5.47,5.92c-6.85,15.49-13.63,31-20.54,46.48a41.3,41.3,0,0,1-4.23,7.28,7.06,7.06,0,0,1-3.55,2.28,3.43,3.43,0,0,1-3-.65,4.7,4.7,0,0,1-.61-3.54,5,5,0,0,1,2.16-2.82c6.62-3.76,9.25-10.27,12-16.76a8.22,8.22,0,0,0-.26-7.72c-4-7.81-7.62-15.81-11.48-23.69a38.7,38.7,0,0,0-3.4-5.42c-1.07-1.49-2.65-1.76-3.94-.44a20.26,20.26,0,0,0-3.86,5c-4.5,9.27-8.78,18.64-13.23,27.94a3.84,3.84,0,0,1-2.1,1.89c-1.41.4-1.79-.83-2.28-2q-6.17-14.29-12.49-28.51c-1.06-2.38-2.3-4.69-5.09-5.57C167.16,39.56,167,39,166.68,38.51Z"/><path class="cls-1" d="M480.81,73.12c1-.19,2-.43,3.05-.55A3.21,3.21,0,0,0,487,69c0-7.94-.11-15.89-.15-23.83,0-8.18,0-16.35-.07-24.53,0-1,0-2,0-3,0-2.22-1.21-3.36-3.37-3.55a12.38,12.38,0,0,1-2.5-.24,1.77,1.77,0,0,1-1-1.22c0-.29.56-1,.93-1,4.08-.52,8.18-1,12.27-1.38,1.4-.14,1.61.83,1.57,1.95q-.54,15.1-1.06,30.21a12,12,0,0,0,.18,1.39,15.13,15.13,0,0,1,11.09-7.39,18.34,18.34,0,0,1,6.13,0c5.82,1.1,9.06,5,9,11,0,5.19-.42,10.37-.63,15.56-.06,1.45-.16,2.9-.09,4.35.19,3.55,1.2,4.65,4.65,5.5a7.59,7.59,0,0,1,1.78,1l-.33.48H506.5l-.31-.82a6,6,0,0,1,1.62-1c3.62-.77,4.5-1.8,4.56-5.37.11-6,.3-12.06.38-18.09.06-5.13-1.66-7.82-5.51-8.88A10.25,10.25,0,0,0,496,44.81c-1.91,3.22-2.17,6.79-2.2,10.4,0,4.51,0,9,0,13.52,0,2.88.57,3.47,3.4,3.74a4.43,4.43,0,0,1,1.36.14,4.34,4.34,0,0,1,1,.93c-.34.22-.68.63-1,.64-1.76.06-3.51,0-5.27,0-3.43.07-6.86.23-10.29.26a9.79,9.79,0,0,1-2.32-.55Z"/><path class="cls-1" d="M452.94,69.86c-.1.73,0,1.62-.33,2.18-2,3.09-5.12,3.9-8.61,3.54-3.8-.39-4.93-3.08-5.18-6.86-.82.88-1.31,1.42-1.81,1.94-3.77,3.85-8.25,5.67-13.67,4.65-5.06-.95-7.32-4.49-6.23-9.55A11.61,11.61,0,0,1,423,57.69a129,129,0,0,1,14-6.06c1.5-.58,2.11-1.15,2-2.71-.12-1.21,0-2.44,0-3.66-.13-4-1.87-5.92-5.85-6.16s-7.45.33-9.14,4.74a3.2,3.2,0,0,1-4.62,1.54c-1.31-.82-1.52-2.78-.39-4.5a8.56,8.56,0,0,1,6.5-3.87,75.84,75.84,0,0,1,14.08-.13c4.36.46,6.66,3.61,6.65,8.26,0,5.57-.4,11.13-.61,16.7-.07,2-.14,4-.11,6,.05,3.48,2.33,4.68,5.35,2.87.51-.31,1-.65,1.49-1ZM438.59,53.27c-4,.52-9.22,3.16-11.44,6a12.51,12.51,0,0,0-2.25,4.42c-.62,2.42-.58,4.95,1.67,6.71,3.33,2.61,11.59-.65,12-4.89C438.87,61.51,438.6,57.45,438.59,53.27Z"/><path class="cls-1" d="M148.19,73.46c.89-.24,1.77-.55,2.67-.72,2.79-.54,3.55-1.34,3.54-4.12q-.09-25-.24-49.92c0-3.41-.75-4.12-4.12-4.42l-2.19-.22c-.56-1.57-.18-2.16,1.46-2.28,3.34-.24,6.68-.58,10-1.13,2-.33,2.52.21,2.5,2.2q-.3,27.48-.45,55c0,3.78.39,4.21,4.11,5a8,8,0,0,1,1.86.94,6.42,6.42,0,0,1-2,.78c-5,.07-9.92.05-14.88,0a19.74,19.74,0,0,1-2.11-.23Z"/><path class="cls-1" d="M546.45,75.7c-6.84-.1-13-1.93-16.59-8.23C524,57.26,528.26,39,544,36.32c8-1.39,15.22,2.67,17,9.86.7,2.78.18,3.55-2.67,3.51-7.1-.1-14.19-.2-21.28-.46-1.82-.07-2.35.46-2.48,2.21-.44,6,.46,11.6,5,16a13.26,13.26,0,0,0,18.06.23c.51-.46,1.43-.45,2.16-.66,0,.73.23,1.63-.1,2.18C556.73,74.23,552,75.78,546.45,75.7ZM535.64,47.6c3.44,0,6.77,0,10.11,0,2,0,3.95-.27,5.92-.4,1.55-.11,2.07-1,2-2.46a5.85,5.85,0,0,0-4.21-5.39C543.65,37.33,536.78,41.46,535.64,47.6Z"/><path class="cls-1" d="M456.62,39.69c.25-.37.35-.75.57-.83,4.47-1.68,6.34-5.47,7.86-9.56a3.06,3.06,0,0,1,.56-1.23c.35-.3,1.06-.63,1.34-.47a1.87,1.87,0,0,1,.76,1.37c.07,3,0,6.07,0,9.11,2.93,0,5.72,0,8.51,0,1.07,0,2.22.05,1.92,1.46-.11.53-1.22,1.14-1.91,1.19-2.28.15-4.58.11-6.87,0-1.28,0-2,.26-2,1.75,0,8.47-.08,16.94-.08,25.41a3.53,3.53,0,0,0,3.1,3.69,7.1,7.1,0,0,0,8.12-3.32c.3,1.11.7,1.78.58,2.34A5.39,5.39,0,0,1,478,72.83c-2.28,2.71-8.37,3.75-12.68,2.23-3.28-1.15-5.2-4.06-5.19-8.34q0-11.22.32-22.43c.06-2.39-.06-4.34-3.19-4.19C457.06,40.1,456.87,39.86,456.62,39.69Z"/><path class="cls-1" d="M577.91,42.17c1.79-1.41,3.51-2.9,5.37-4.2a9.06,9.06,0,0,1,8.46-1.44A4,4,0,0,1,594.3,42,3.65,3.65,0,0,1,592,43.95a3.47,3.47,0,0,1-2.71-1.06c-2.63-3-6.41-3.17-8.53.3a17.66,17.66,0,0,0-2.33,7.71c-.36,5.17-.14,10.39-.14,15.59s.39,5.5,5.42,6.24a1.9,1.9,0,0,1,1.39,1.13H565.25l-.08-.74c1-.22,1.94-.47,2.92-.64a3.39,3.39,0,0,0,3.15-3.78c0-8,.18-16,.24-24.07,0-3.29-.57-3.79-3.83-4-.7,0-1.37-.69-2.06-1.05a6.42,6.42,0,0,1,1.78-1.22c2.66-.69,5.36-1.19,8-1.85s3-.59,2.93,2.38c0,1.29,0,2.58,0,3.87Z"/><path class="cls-1" d="M144.74,74.36h-18.5l-.25-.73a15.65,15.65,0,0,1,2.32-.85c3.12-.62,3.92-1.19,4-4.29.13-8.16,0-16.33,0-24.5,0-2.14-.87-3.32-3.19-3a2.58,2.58,0,0,1-1.36,0,5.5,5.5,0,0,1-1.2-1.05c.38-.39.7-1,1.15-1.13,3.17-.79,6.37-1.46,9.55-2.21,2-.47,2.16.69,2.12,2.19q-.24,10.18-.43,20.36c-.06,3.28,0,6.57-.09,9.84-.08,2.4,1.1,3.46,3.33,3.78a19.63,19.63,0,0,1,2.77.81Z"/><path class="cls-1" d="M136.19,21.72a4.46,4.46,0,0,1-4.44-4.51,4.48,4.48,0,1,1,8.95.09A4.38,4.38,0,0,1,136.19,21.72Z"/></g></svg>